<?xml version="1.0" encoding="UTF-8" standalone="no"?>
<svg
   xmlns:osb="http://www.openswatchbook.org/uri/2009/osb"
   xmlns:dc="http://purl.org/dc/elements/1.1/"
   xmlns:cc="http://creativecommons.org/ns#"
   xmlns:rdf="http://www.w3.org/1999/02/22-rdf-syntax-ns#"
   xmlns:svg="http://www.w3.org/2000/svg"
   xmlns="http://www.w3.org/2000/svg"
   xmlns:sodipodi="http://sodipodi.sourceforge.net/DTD/sodipodi-0.dtd"
   xmlns:inkscape="http://www.inkscape.org/namespaces/inkscape"
   width="512"
   height="512"
   viewBox="0 0 135.46666 135.46667"
   version="1.1"
   id="svg8"
   inkscape:version="1.0.2 (e86c870879, 2021-01-15)"
   sodipodi:docname="protractor.svg">
  <defs
     id="defs2">
    <linearGradient
       id="linearGradient3232"
       osb:paint="solid">
      <stop
         style="stop-color:#000000;stop-opacity:1;"
         offset="0"
         id="stop3230" />
    </linearGradient>
    <rect
       x="1.3229167"
       y="27.78125"
       width="33.072918"
       height="18.520832"
       id="rect1790" />
    <rect
       x="1.3229167"
       y="27.78125"
       width="33.072918"
       height="18.520832"
       id="rect1778" />
    <rect
       x="1.3229167"
       y="27.78125"
       width="33.072918"
       height="18.520832"
       id="rect1790-3" />
    <rect
       x="1.3229167"
       y="27.78125"
       width="33.072918"
       height="18.520832"
       id="rect1781" />
    <rect
       x="1.3229167"
       y="27.78125"
       width="33.072918"
       height="18.520832"
       id="rect1858" />
    <rect
       x="1.3229167"
       y="27.78125"
       width="33.072918"
       height="18.520832"
       id="rect1784" />
    <rect
       x="1.3229167"
       y="27.78125"
       width="33.072918"
       height="18.520832"
       id="rect1872" />
    <rect
       x="1.3229167"
       y="27.78125"
       width="33.072918"
       height="18.520832"
       id="rect1787" />
    <rect
       x="1.3229167"
       y="27.78125"
       width="33.072918"
       height="18.520832"
       id="rect1874" />
    <rect
       x="1.3229167"
       y="27.78125"
       width="33.072918"
       height="18.520832"
       id="rect1791" />
    <rect
       x="1.3229167"
       y="27.78125"
       width="33.072918"
       height="18.520832"
       id="rect1888" />
    <rect
       x="1.3229167"
       y="27.78125"
       width="33.072918"
       height="18.520832"
       id="rect1794" />
    <rect
       x="1.3229167"
       y="27.78125"
       width="33.072918"
       height="18.520832"
       id="rect1890" />
    <rect
       x="1.3229167"
       y="27.78125"
       width="33.072918"
       height="18.520832"
       id="rect1797" />
    <rect
       x="1.3229167"
       y="27.78125"
       width="33.072918"
       height="18.520832"
       id="rect1904" />
    <rect
       x="1.3229167"
       y="27.78125"
       width="33.072918"
       height="18.520832"
       id="rect1800" />
    <rect
       x="1.3229167"
       y="27.78125"
       width="33.072918"
       height="18.520832"
       id="rect1906" />
    <rect
       x="1.3229167"
       y="27.78125"
       width="33.072918"
       height="18.520832"
       id="rect1803" />
    <rect
       x="1.3229167"
       y="27.78125"
       width="33.072918"
       height="18.520832"
       id="rect1920" />
    <rect
       x="1.3229167"
       y="27.78125"
       width="33.072918"
       height="18.520832"
       id="rect1806" />
    <rect
       x="1.3229167"
       y="27.78125"
       width="33.072918"
       height="18.520832"
       id="rect1922" />
    <rect
       x="1.3229167"
       y="27.78125"
       width="33.072918"
       height="18.520832"
       id="rect1809" />
    <rect
       x="1.3229167"
       y="27.78125"
       width="33.072918"
       height="18.520832"
       id="rect1984" />
    <rect
       x="1.3229167"
       y="27.78125"
       width="33.072918"
       height="18.520832"
       id="rect1812" />
    <rect
       x="1.3229167"
       y="27.78125"
       width="33.072918"
       height="18.520832"
       id="rect1986" />
    <rect
       x="1.3229167"
       y="27.78125"
       width="33.072918"
       height="18.520832"
       id="rect1815" />
    <rect
       x="1.3229167"
       y="27.78125"
       width="33.072918"
       height="18.520832"
       id="rect1988" />
    <rect
       x="1.3229167"
       y="27.78125"
       width="33.072918"
       height="18.520832"
       id="rect1818" />
    <rect
       x="1.3229167"
       y="27.78125"
       width="33.072918"
       height="18.520832"
       id="rect1990" />
    <rect
       x="1.3229167"
       y="27.78125"
       width="33.072918"
       height="18.520832"
       id="rect1821" />
    <rect
       x="1.3229167"
       y="27.78125"
       width="33.072918"
       height="18.520832"
       id="rect1992" />
    <rect
       x="1.3229167"
       y="27.78125"
       width="33.072918"
       height="18.520832"
       id="rect1824" />
    <rect
       x="1.3229167"
       y="27.78125"
       width="33.072918"
       height="18.520832"
       id="rect1994" />
    <rect
       x="1.3229167"
       y="27.78125"
       width="33.072918"
       height="18.520832"
       id="rect1827" />
    <rect
       x="1.3229167"
       y="27.78125"
       width="33.072918"
       height="18.520832"
       id="rect1996" />
    <rect
       x="1.3229167"
       y="27.78125"
       width="33.072918"
       height="18.520832"
       id="rect1830" />
    <rect
       x="1.3229167"
       y="27.78125"
       width="33.072918"
       height="18.520832"
       id="rect1998" />
    <rect
       x="1.3229167"
       y="27.78125"
       width="33.072918"
       height="18.520832"
       id="rect1833" />
    <rect
       x="1.3229167"
       y="27.78125"
       width="33.072918"
       height="18.520832"
       id="rect2000" />
    <rect
       x="1.3229167"
       y="27.78125"
       width="33.072918"
       height="18.520832"
       id="rect1836" />
    <rect
       x="1.3229167"
       y="27.78125"
       width="33.072918"
       height="18.520832"
       id="rect2002" />
    <rect
       x="1.3229167"
       y="27.78125"
       width="33.072918"
       height="18.520832"
       id="rect1839" />
    <rect
       x="1.3229167"
       y="27.78125"
       width="33.072918"
       height="18.520832"
       id="rect2064" />
    <rect
       x="1.3229167"
       y="27.78125"
       width="33.072918"
       height="18.520832"
       id="rect1842" />
    <rect
       x="1.3229167"
       y="27.78125"
       width="33.072918"
       height="18.520832"
       id="rect2066" />
    <rect
       x="1.3229167"
       y="27.78125"
       width="33.072918"
       height="18.520832"
       id="rect1845" />
    <rect
       x="1.3229167"
       y="27.78125"
       width="33.072918"
       height="18.520832"
       id="rect2068" />
    <rect
       x="1.3229167"
       y="27.78125"
       width="33.072918"
       height="18.520832"
       id="rect1848" />
    <rect
       x="1.3229167"
       y="27.78125"
       width="33.072918"
       height="18.520832"
       id="rect2070" />
    <rect
       x="1.3229167"
       y="27.78125"
       width="33.072918"
       height="18.520832"
       id="rect1851" />
    <rect
       x="1.3229167"
       y="27.78125"
       width="33.072918"
       height="18.520832"
       id="rect2072" />
    <rect
       x="1.3229167"
       y="27.78125"
       width="33.072918"
       height="18.520832"
       id="rect1854" />
    <rect
       x="1.3229167"
       y="27.78125"
       width="33.072918"
       height="18.520832"
       id="rect2074" />
    <rect
       x="1.3229167"
       y="27.78125"
       width="33.072918"
       height="18.520832"
       id="rect1857" />
    <rect
       x="1.3229167"
       y="27.78125"
       width="33.072918"
       height="18.520832"
       id="rect2076" />
    <rect
       x="1.3229167"
       y="27.78125"
       width="33.072918"
       height="18.520832"
       id="rect1860" />
    <rect
       x="1.3229167"
       y="27.78125"
       width="33.072918"
       height="18.520832"
       id="rect2078" />
    <rect
       x="1.3229167"
       y="27.78125"
       width="33.072918"
       height="18.520832"
       id="rect1863" />
    <rect
       x="1.3229167"
       y="27.78125"
       width="33.072918"
       height="18.520832"
       id="rect2080" />
    <rect
       x="1.3229167"
       y="27.78125"
       width="33.072918"
       height="18.520832"
       id="rect1866" />
    <filter
       inkscape:collect="always"
       style="color-interpolation-filters:sRGB"
       id="filter3226"
       x="-0.03043539"
       width="1.0608708"
       y="-0.06094928"
       height="1.1218986">
      <feGaussianBlur
         inkscape:collect="always"
         stdDeviation="1.72012"
         id="feGaussianBlur3228" />
    </filter>
  </defs>
  <sodipodi:namedview
     id="base"
     pagecolor="#ffffff"
     bordercolor="#666666"
     borderopacity="1.0"
     inkscape:pageopacity="0.0"
     inkscape:pageshadow="2"
     inkscape:zoom="0.86395844"
     inkscape:cx="203.53538"
     inkscape:cy="448.31265"
     inkscape:document-units="mm"
     inkscape:current-layer="layer1"
     inkscape:document-rotation="0"
     showgrid="true"
     units="px"
     inkscape:snap-bbox="true"
     inkscape:bbox-paths="true"
     inkscape:snap-bbox-edge-midpoints="true"
     inkscape:snap-bbox-midpoints="true"
     inkscape:bbox-nodes="true"
     inkscape:snap-object-midpoints="true"
     inkscape:snap-center="true"
     inkscape:window-width="1920"
     inkscape:window-height="1011"
     inkscape:window-x="0"
     inkscape:window-y="41"
     inkscape:window-maximized="1"
     inkscape:snap-others="false">
    <inkscape:grid
       type="xygrid"
       id="grid3272" />
  </sodipodi:namedview>
  <metadata
     id="metadata5">
    <rdf:RDF>
      <cc:Work
         rdf:about="">
        <dc:format>image/svg+xml</dc:format>
        <dc:type
           rdf:resource="http://purl.org/dc/dcmitype/StillImage" />
        <dc:title></dc:title>
      </cc:Work>
    </rdf:RDF>
  </metadata>
  <g
     inkscape:label="Layer 1"
     inkscape:groupmode="layer"
     id="layer1">
    <path
       style="fill:none;fill-opacity:1;stroke:#000000;stroke-width:2.64583333;stroke-linecap:butt;stroke-linejoin:miter;stroke-opacity:1;stroke-miterlimit:4;stroke-dasharray:none;opacity:0.5;filter:url(#filter3226)"
       d="M -0.08718564,135.46659 H 135.55386 c 0,0 -35.84963,-67.733172 -67.820529,-67.733172 -31.9709,0 -67.82051664,67.733172 -67.82051664,67.733172 z"
       id="path835"
       sodipodi:nodetypes="cczc" />
    <path
       style="opacity:0;fill:#d0d0d0;fill-opacity:1;stroke:none;stroke-width:0.264752px;stroke-linecap:butt;stroke-linejoin:miter;stroke-opacity:1"
       d="M -0.08718564,135.46659 H 135.55386 c 0,0 -35.84963,-67.733172 -67.820529,-67.733172 -31.9709,0 -67.82051664,67.733172 -67.82051664,67.733172 z"
       id="path833"
       sodipodi:nodetypes="cczc" />
    <path
       style="opacity:0.4;fill:#bababa;fill-opacity:1;stroke:none;stroke-width:2.646;stroke-linecap:butt;stroke-linejoin:miter;stroke-miterlimit:4;stroke-dasharray:none;stroke-opacity:1"
       d="M -0.08718564,135.46659 H 135.55386 c 0,0 -35.870208,-67.733173 -67.820527,-67.733172 -31.950319,10e-7 -67.82051864,67.733172 -67.82051864,67.733172 z"
       id="path3236"
       sodipodi:nodetypes="cczc" />
  </g>
</svg>
