<?xml version="1.0" encoding="UTF-8" standalone="no"?>
<svg
   xmlns:dc="http://purl.org/dc/elements/1.1/"
   xmlns:cc="http://creativecommons.org/ns#"
   xmlns:rdf="http://www.w3.org/1999/02/22-rdf-syntax-ns#"
   xmlns:svg="http://www.w3.org/2000/svg"
   xmlns="http://www.w3.org/2000/svg"
   xmlns:xlink="http://www.w3.org/1999/xlink"
   xmlns:sodipodi="http://sodipodi.sourceforge.net/DTD/sodipodi-0.dtd"
   xmlns:inkscape="http://www.inkscape.org/namespaces/inkscape"
   width="65.608192mm"
   height="65.608192mm"
   viewBox="0 0 65.608192 65.608192"
   version="1.1"
   id="svg8"
   inkscape:version="1.0.2 (e86c870879, 2021-01-15)"
   sodipodi:docname="save_cog_icon.svg">
  <defs
     id="defs2">
    <linearGradient
       inkscape:collect="always"
       id="linearGradient968">
      <stop
         style="stop-color:#fffcfc;stop-opacity:1"
         offset="0"
         id="stop964" />
      <stop
         style="stop-color:#515151;stop-opacity:1"
         offset="1"
         id="stop966" />
    </linearGradient>
    <linearGradient
       inkscape:collect="always"
       id="linearGradient946">
      <stop
         style="stop-color:#a9a7a7;stop-opacity:1;"
         offset="0"
         id="stop942" />
      <stop
         style="stop-color:#dedede;stop-opacity:1"
         offset="1"
         id="stop944" />
    </linearGradient>
    <linearGradient
       inkscape:collect="always"
       xlink:href="#linearGradient946"
       id="linearGradient948"
       x1="15.000001"
       y1="15.000001"
       x2="35"
       y2="35"
       gradientUnits="userSpaceOnUse" />
    <linearGradient
       inkscape:collect="always"
       xlink:href="#linearGradient968"
       id="linearGradient956"
       x1="-29.495703"
       y1="94.488281"
       x2="218.47227"
       y2="94.488281"
       gradientUnits="userSpaceOnUse" />
    <linearGradient
       inkscape:collect="always"
       xlink:href="#linearGradient968"
       id="linearGradient970"
       x1="-5.7434335"
       y1="-5.7515626"
       x2="194.72"
       y2="194.72"
       gradientUnits="userSpaceOnUse" />
    <linearGradient
       inkscape:collect="always"
       xlink:href="#linearGradient968"
       id="linearGradient978"
       x1="94.488281"
       y1="-29.495703"
       x2="94.488281"
       y2="218.47227"
       gradientUnits="userSpaceOnUse" />
    <linearGradient
       inkscape:collect="always"
       xlink:href="#linearGradient968"
       id="linearGradient986"
       x1="194.72"
       y1="-5.7515626"
       x2="-5.7434335"
       y2="194.72"
       gradientUnits="userSpaceOnUse" />
  </defs>
  <sodipodi:namedview
     id="base"
     pagecolor="#ffffff"
     bordercolor="#666666"
     borderopacity="1.0"
     inkscape:pageopacity="0.0"
     inkscape:pageshadow="2"
     inkscape:zoom="1.28"
     inkscape:cx="237.95032"
     inkscape:cy="37.995283"
     inkscape:document-units="mm"
     inkscape:current-layer="layer1"
     inkscape:document-rotation="0"
     showgrid="false"
     inkscape:snap-bbox="true"
     inkscape:bbox-paths="true"
     inkscape:bbox-nodes="true"
     inkscape:snap-bbox-edge-midpoints="true"
     inkscape:snap-bbox-midpoints="true"
     showguides="true"
     inkscape:guide-bbox="true"
     inkscape:window-width="1920"
     inkscape:window-height="1023"
     inkscape:window-x="0"
     inkscape:window-y="32"
     inkscape:window-maximized="1"
     fit-margin-top="0"
     fit-margin-left="0"
     fit-margin-right="0"
     fit-margin-bottom="0">
    <sodipodi:guide
       position="89.483108,-12.472309"
       orientation="0,-1"
       id="guide856" />
  </sodipodi:namedview>
  <metadata
     id="metadata5">
    <rdf:RDF>
      <cc:Work
         rdf:about="">
        <dc:format>image/svg+xml</dc:format>
        <dc:type
           rdf:resource="http://purl.org/dc/dcmitype/StillImage" />
        <dc:title />
      </cc:Work>
    </rdf:RDF>
  </metadata>
  <g
     inkscape:label="Layer 1"
     inkscape:groupmode="layer"
     id="layer1"
     transform="translate(7.8040713,7.8040713)">
    <path
       id="rect859"
       style="fill:url(#linearGradient986);fill-opacity:1;stroke:none;stroke-width:2.3;stroke-opacity:0.994039"
       d="m 27.675781,-4.6015625 c -4.830597,0 -9.661828,1.8493278 -13.363281,5.55078125 L 0.94921875,14.3125 c -7.40290675,7.402907 -7.40290675,19.321702 0,26.724609 l 9.75976525,9.759766 a 94.488188,94.488188 0 0 1 0.08399,-0.158203 94.488189,94.488189 0 0 1 0.205078,-0.388672 94.488188,94.488188 0 0 1 0.128906,-0.244141 94.488189,94.488189 0 0 1 0.259766,-0.486328 94.488188,94.488188 0 0 1 0.18164,-0.332031 94.488189,94.488189 0 0 1 0.208985,-0.382812 94.488188,94.488188 0 0 1 0.15039,-0.269532 94.488189,94.488189 0 0 1 0.306641,-0.542968 94.488188,94.488188 0 0 1 0.07617,-0.134766 94.488189,94.488189 0 0 1 0.21875,-0.384766 94.488188,94.488188 0 0 1 0.294922,-0.513672 94.488189,94.488189 0 0 1 0.103515,-0.175781 94.488188,94.488188 0 0 1 0.222657,-0.378906 94.488189,94.488189 0 0 1 0.236328,-0.396485 94.488188,94.488188 0 0 1 0.240234,-0.40039 94.488189,94.488189 0 0 1 0.304688,-0.5 94.488189,94.488189 0 0 1 0.376953,-0.609375 94.488188,94.488188 0 0 1 0.115234,-0.183594 94.488189,94.488189 0 0 1 0.373047,-0.591797 94.488189,94.488189 0 0 1 0.443359,-0.6875 94.488189,94.488189 0 0 1 0.4375,-0.669922 94.488188,94.488188 0 0 1 0.03516,-0.05078 94.488189,94.488189 0 0 1 0.24414,-0.367187 94.488188,94.488188 0 0 1 0.302735,-0.453125 94.488189,94.488189 0 0 1 0.341796,-0.5 94.488189,94.488189 0 0 1 0.464844,-0.669922 94.488189,94.488189 0 0 1 0.472656,-0.667969 94.488189,94.488189 0 0 1 0.44336,-0.617188 94.488188,94.488188 0 0 1 0.07422,-0.103515 94.488189,94.488189 0 0 1 0.289062,-0.394531 94.488188,94.488188 0 0 1 0.322266,-0.4375 94.488189,94.488189 0 0 1 0.142578,-0.191407 94.488188,94.488188 0 0 1 0.222656,-0.296875 94.488189,94.488189 0 0 1 0.449219,-0.589843 94.488189,94.488189 0 0 1 0.36914,-0.478516 94.488188,94.488188 0 0 1 0.347657,-0.445313 94.488188,94.488188 0 0 1 0.46289,-0.583984 94.488189,94.488189 0 0 1 0.208985,-0.259766 94.488188,94.488188 0 0 1 0.197265,-0.246093 94.488189,94.488189 0 0 1 0.257813,-0.316407 94.488188,94.488188 0 0 1 0.318359,-0.388671 94.488189,94.488189 0 0 1 0.291016,-0.34961 94.488188,94.488188 0 0 1 0.171875,-0.203125 94.488189,94.488189 0 0 1 0.457031,-0.541015 94.488189,94.488189 0 0 1 0.378906,-0.441407 94.488188,94.488188 0 0 1 0.355469,-0.410156 94.488189,94.488189 0 0 1 0.128906,-0.148437 94.488188,94.488188 0 0 1 0.25586,-0.291016 94.488189,94.488189 0 0 1 0.49414,-0.554687 94.488189,94.488189 0 0 1 0.427735,-0.47461 94.488188,94.488188 0 0 1 0.210937,-0.230469 94.488189,94.488189 0 0 1 0.464844,-0.501953 94.488189,94.488189 0 0 1 0.496094,-0.529297 94.488188,94.488188 0 0 1 0.109375,-0.117187 94.488189,94.488189 0 0 1 0.517578,-0.541016 94.488189,94.488189 0 0 1 0.484375,-0.5 94.488188,94.488188 0 0 1 0.253906,-0.261718 94.488189,94.488189 0 0 1 0.15625,-0.15625 94.488188,94.488188 0 0 1 0.373047,-0.376954 94.488189,94.488189 0 0 1 0.376953,-0.373046 94.488188,94.488188 0 0 1 0.13086,-0.128907 94.488189,94.488189 0 0 1 0.501953,-0.490234 94.488188,94.488188 0 0 1 0.04883,-0.04883 94.488189,94.488189 0 0 1 0.570312,-0.546875 94.488188,94.488188 0 0 1 0.25586,-0.244141 94.488189,94.488189 0 0 1 0.18164,-0.169922 94.488188,94.488188 0 0 1 0.31836,-0.298828 94.488189,94.488189 0 0 1 0.238281,-0.222656 94.488188,94.488188 0 0 1 0.330078,-0.302735 94.488189,94.488189 0 0 1 0.326172,-0.296874 94.488188,94.488188 0 0 1 0.24414,-0.222657 94.488189,94.488189 0 0 1 0.417969,-0.373047 94.488188,94.488188 0 0 1 0.15625,-0.140625 94.488189,94.488189 0 0 1 0.496094,-0.4375 94.488188,94.488188 0 0 1 0.08008,-0.07031 94.488189,94.488189 0 0 1 0.591797,-0.511719 94.488189,94.488189 0 0 1 0.556641,-0.474609 94.488188,94.488188 0 0 1 0.160156,-0.134766 94.488189,94.488189 0 0 1 0.291015,-0.244141 94.488188,94.488188 0 0 1 0.427735,-0.355468 94.488189,94.488189 0 0 1 0.398437,-0.324219 94.488188,94.488188 0 0 1 0.07227,-0.06055 94.488189,94.488189 0 0 1 0.419922,-0.339844 94.488188,94.488188 0 0 1 0.367187,-0.292968 94.488189,94.488189 0 0 1 0.38086,-0.302735 94.488188,94.488188 0 0 1 0.105469,-0.08203 94.488189,94.488189 0 0 1 0.621093,-0.484375 94.488189,94.488189 0 0 1 0.632813,-0.484375 94.488188,94.488188 0 0 1 0.04297,-0.0332 94.488189,94.488189 0 0 1 0.548829,-0.412109 94.488188,94.488188 0 0 1 0.132812,-0.09961 94.488189,94.488189 0 0 1 0.556641,-0.410156 94.488188,94.488188 0 0 1 0.06836,-0.05078 94.488189,94.488189 0 0 1 0.640625,-0.462891 94.488189,94.488189 0 0 1 0.666016,-0.474609 94.488189,94.488189 0 0 1 0.669922,-0.46875 94.488189,94.488189 0 0 1 0.623046,-0.427735 94.488188,94.488188 0 0 1 0.101563,-0.06836 94.488189,94.488189 0 0 1 0.626953,-0.421875 94.488189,94.488189 0 0 1 0.681641,-0.451172 94.488189,94.488189 0 0 1 0.675781,-0.439453 94.488188,94.488188 0 0 1 0.01563,-0.0098 94.488189,94.488189 0 0 1 0.583984,-0.371093 94.488188,94.488188 0 0 1 0.199219,-0.126954 94.488189,94.488189 0 0 1 0.521484,-0.324218 94.488188,94.488188 0 0 1 0.144532,-0.08984 94.488189,94.488189 0 0 1 0.371094,-0.226563 94.488188,94.488188 0 0 1 0.509765,-0.310547 94.488189,94.488189 0 0 1 0.445313,-0.265624 94.488189,94.488189 0 0 1 0.705078,-0.416016 94.488189,94.488189 0 0 1 0.5625,-0.324219 94.488188,94.488188 0 0 1 0.320312,-0.183594 94.488189,94.488189 0 0 1 0.410156,-0.230468 94.488188,94.488188 0 0 1 0.175782,-0.09961 94.488189,94.488189 0 0 1 0.666015,-0.36914 94.488189,94.488189 0 0 1 0.716797,-0.388672 94.488189,94.488189 0 0 1 0.695313,-0.369141 94.488188,94.488188 0 0 1 0.183593,-0.09766 94.488189,94.488189 0 0 1 0.164063,-0.08594 L 41.037109,0.94921875 C 37.335656,-2.7522347 32.506378,-4.6015625 27.675781,-4.6015625 Z M 178.26758,138.17969 a 94.488189,94.488189 0 0 1 -0.16406,0.3125 94.488188,94.488188 0 0 1 -0.2168,0.41015 94.488189,94.488189 0 0 1 -0.0371,0.0684 94.488189,94.488189 0 0 1 -0.25977,0.48633 94.488188,94.488188 0 0 1 -0.0898,0.16602 94.488189,94.488189 0 0 1 -0.16992,0.31054 94.488188,94.488188 0 0 1 -0.22461,0.40625 94.488189,94.488189 0 0 1 -0.17188,0.3086 94.488188,94.488188 0 0 1 -0.22851,0.40429 94.488189,94.488189 0 0 1 -0.17383,0.30665 94.488188,94.488188 0 0 1 -0.084,0.14453 94.488188,94.488188 0 0 1 -0.29493,0.51367 94.488189,94.488189 0 0 1 -0.0293,0.0488 94.488188,94.488188 0 0 1 -0.23438,0.40039 94.488189,94.488189 0 0 1 -0.17969,0.30468 94.488188,94.488188 0 0 1 -0.23828,0.39844 94.488189,94.488189 0 0 1 -0.18359,0.30274 94.488188,94.488188 0 0 1 -0.24219,0.39648 94.488189,94.488189 0 0 1 -0.37695,0.60938 94.488188,94.488188 0 0 1 -0.0527,0.0859 94.488189,94.488189 0 0 1 -0.1875,0.29883 94.488188,94.488188 0 0 1 -0.24804,0.39063 94.488189,94.488189 0 0 1 -0.44336,0.6875 94.488189,94.488189 0 0 1 -0.4375,0.66992 94.488188,94.488188 0 0 1 -0.01,0.0137 94.488189,94.488189 0 0 1 -0.19531,0.29492 94.488188,94.488188 0 0 1 -0.0527,0.0762 94.488188,94.488188 0 0 1 -0.4043,0.60157 94.488188,94.488188 0 0 1 -0.26172,0.38476 94.488189,94.488189 0 0 1 -0.19922,0.28906 94.488188,94.488188 0 0 1 -0.26562,0.38086 94.488189,94.488189 0 0 1 -0.006,0.01 94.488189,94.488189 0 0 1 -0.4668,0.6582 94.488189,94.488189 0 0 1 -0.44336,0.61719 94.488188,94.488188 0 0 1 -0.0332,0.0469 94.488189,94.488189 0 0 1 -0.20703,0.28515 94.488188,94.488188 0 0 1 -0.27539,0.375 94.488189,94.488189 0 0 1 -0.21094,0.2832 94.488188,94.488188 0 0 1 -0.27735,0.3711 94.488189,94.488189 0 0 1 -0.0469,0.0625 94.488189,94.488189 0 0 1 -0.41602,0.54687 94.488188,94.488188 0 0 1 -0.0332,0.043 94.488189,94.488189 0 0 1 -0.21484,0.2793 94.488188,94.488188 0 0 1 -0.0293,0.0391 94.488188,94.488188 0 0 1 -0.47266,0.60547 94.488188,94.488188 0 0 1 -0.46289,0.58398 94.488189,94.488189 0 0 1 -0.0449,0.0566 94.488188,94.488188 0 0 1 -0.29101,0.36133 94.488189,94.488189 0 0 1 -0.22266,0.27539 94.488188,94.488188 0 0 1 -0.10547,0.12891 94.488188,94.488188 0 0 1 -0.31836,0.38867 94.488189,94.488189 0 0 1 -0.0937,0.11328 94.488188,94.488188 0 0 1 -0.29883,0.35742 94.488189,94.488189 0 0 1 -0.22656,0.26954 94.488188,94.488188 0 0 1 -0.30078,0.35351 94.488189,94.488189 0 0 1 -0.37891,0.44141 94.488188,94.488188 0 0 1 -0.35547,0.41015 94.488189,94.488189 0 0 1 -0.0293,0.0352 94.488188,94.488188 0 0 1 -0.30664,0.34961 94.488189,94.488189 0 0 1 -0.23438,0.26367 94.488188,94.488188 0 0 1 -0.30859,0.34571 94.488189,94.488189 0 0 1 -0.0527,0.0586 94.488189,94.488189 0 0 1 -0.375,0.41601 94.488188,94.488188 0 0 1 -0.12109,0.13282 94.488189,94.488189 0 0 1 -0.0898,0.0976 94.488189,94.488189 0 0 1 -0.46485,0.50196 94.488189,94.488189 0 0 1 -0.49609,0.52929 94.488188,94.488188 0 0 1 -0.0625,0.0684 94.488189,94.488189 0 0 1 -0.0469,0.0488 94.488189,94.488189 0 0 1 -0.51757,0.54102 94.488189,94.488189 0 0 1 -0.48438,0.5 94.488188,94.488188 0 0 1 -0.084,0.0879 94.488189,94.488189 0 0 1 -0.24805,0.25195 94.488188,94.488188 0 0 1 -0.32617,0.33008 94.488189,94.488189 0 0 1 -0.25,0.25 94.488188,94.488188 0 0 1 -0.33008,0.32617 94.488189,94.488189 0 0 1 -0.0527,0.0508 94.488189,94.488189 0 0 1 -0.50196,0.49024 94.488188,94.488188 0 0 1 -0.0293,0.0293 94.488189,94.488189 0 0 1 -0.0195,0.0195 94.488189,94.488189 0 0 1 -0.57031,0.54688 94.488189,94.488189 0 0 1 -0.25586,0.24414 94.488188,94.488188 0 0 1 -0.33789,0.31836 94.488189,94.488189 0 0 1 -0.25781,0.24023 94.488188,94.488188 0 0 1 -0.3418,0.31641 94.488189,94.488189 0 0 1 -0.25976,0.23828 94.488188,94.488188 0 0 1 -0.34375,0.3125 94.488189,94.488189 0 0 1 -0.26172,0.23633 94.488188,94.488188 0 0 1 -0.34571,0.30859 94.488189,94.488189 0 0 1 -0.26562,0.23438 94.488188,94.488188 0 0 1 -0.008,0.008 94.488188,94.488188 0 0 1 -0.51172,0.44727 94.488189,94.488189 0 0 1 -0.0957,0.084 94.488188,94.488188 0 0 1 -0.35156,0.30273 94.488189,94.488189 0 0 1 -0.55664,0.47461 94.488188,94.488188 0 0 1 -0.0644,0.0547 94.488189,94.488189 0 0 1 -0.27149,0.22852 94.488188,94.488188 0 0 1 -0.11523,0.0957 94.488188,94.488188 0 0 1 -0.42773,0.35547 94.488189,94.488189 0 0 1 -0.0859,0.0703 94.488188,94.488188 0 0 1 -0.35938,0.29297 94.488189,94.488189 0 0 1 -0.27343,0.22266 94.488188,94.488188 0 0 1 -0.36133,0.29101 94.488189,94.488189 0 0 1 -0.27735,0.22071 94.488188,94.488188 0 0 1 -0.36328,0.2871 94.488189,94.488189 0 0 1 -0.0234,0.0176 94.488189,94.488189 0 0 1 -0.61133,0.47656 94.488188,94.488188 0 0 1 -0.01,0.008 94.488189,94.488189 0 0 1 -0.28125,0.21679 94.488188,94.488188 0 0 1 -0.36914,0.28125 94.488189,94.488189 0 0 1 -0.28125,0.2129 94.488188,94.488188 0 0 1 -0.37109,0.27734 94.488189,94.488189 0 0 1 -0.28321,0.21094 94.488188,94.488188 0 0 1 -0.375,0.27539 94.488189,94.488189 0 0 1 -0.28515,0.20703 94.488188,94.488188 0 0 1 -0.37696,0.27148 94.488189,94.488189 0 0 1 -0.59375,0.42383 94.488188,94.488188 0 0 1 -0.0723,0.0508 94.488189,94.488189 0 0 1 -0.28906,0.20313 94.488188,94.488188 0 0 1 -0.38086,0.26562 94.488189,94.488189 0 0 1 -0.0254,0.0176 94.488189,94.488189 0 0 1 -0.59766,0.41016 94.488188,94.488188 0 0 1 -0.0508,0.0352 94.488189,94.488189 0 0 1 -0.0508,0.0332 94.488189,94.488189 0 0 1 -0.62696,0.42187 94.488189,94.488189 0 0 1 -0.68164,0.45117 94.488189,94.488189 0 0 1 -0.53125,0.34571 94.488188,94.488188 0 0 1 -0.15429,0.0996 94.488189,94.488189 0 0 1 -0.29688,0.18945 94.488188,94.488188 0 0 1 -0.39258,0.25 94.488189,94.488189 0 0 1 -0.29882,0.1875 94.488188,94.488188 0 0 1 -0.39454,0.24414 94.488189,94.488189 0 0 1 -0.30078,0.18555 94.488188,94.488188 0 0 1 -0.14257,0.0859 94.488188,94.488188 0 0 1 -0.50977,0.31055 94.488189,94.488189 0 0 1 -0.0469,0.0273 94.488188,94.488188 0 0 1 -0.39843,0.23828 94.488189,94.488189 0 0 1 -0.30469,0.17969 94.488188,94.488188 0 0 1 -0.70508,0.41211 94.488188,94.488188 0 0 1 -0.62109,0.35547 94.488189,94.488189 0 0 1 -0.0879,0.0508 94.488188,94.488188 0 0 1 -0.40625,0.22852 94.488189,94.488189 0 0 1 -0.0488,0.0273 94.488189,94.488189 0 0 1 -0.66602,0.36914 94.488189,94.488189 0 0 1 -0.71679,0.38867 94.488189,94.488189 0 0 1 -0.69532,0.36914 94.488188,94.488188 0 0 1 -0.0273,0.0156 94.488189,94.488189 0 0 1 -0.3125,0.16406 94.488188,94.488188 0 0 1 -0.008,0.004 l 9.75976,9.75976 c 7.40291,7.40291 19.32171,7.40291 26.72461,0 l 13.36328,-13.36328 c 7.40291,-7.4029 7.40291,-19.3217 0,-26.72461 z"
       transform="scale(0.26458333)" />
    <path
       id="rect852"
       style="fill:url(#linearGradient978);fill-opacity:1;stroke:none;stroke-width:2.3;stroke-opacity:0.994039"
       d="m -9.4492188,66.142578 c -10.4692912,0 -18.8964842,8.427193 -18.8964842,18.896484 V 103.9375 c 0,10.46929 8.427193,18.89648 18.8964842,18.89648 H 4.3515625 A 94.488189,94.488189 0 0 1 0,94.488281 94.488189,94.488189 0 0 1 4.3535156,66.142578 Z m 194.0722688,0 a 94.488189,94.488189 0 0 1 4.35351,28.345703 94.488189,94.488189 0 0 1 -4.35351,28.345699 h 13.80273 c 10.46929,0 18.89649,-8.42719 18.89649,-18.89648 V 85.039062 c 0,-10.469291 -8.4272,-18.896484 -18.89649,-18.896484 z"
       transform="scale(0.26458333)" />
    <path
       id="rect848"
       style="fill:url(#linearGradient970);fill-opacity:1;stroke:none;stroke-width:2.3;stroke-opacity:0.994039"
       d="m 161.30078,-4.6015625 c -4.8306,0 -9.65987,1.8493278 -13.36133,5.55078125 l -9.75976,9.75976525 a 94.488189,94.488189 0 0 1 40.08789,40.087891 l 9.75976,-9.759766 c 7.40291,-7.402907 7.40291,-19.321702 0,-26.724609 L 174.66406,0.94921875 C 170.96261,-2.7522347 166.13138,-4.6015625 161.30078,-4.6015625 Z M 10.708984,138.17969 0.94921875,147.93945 c -7.40290685,7.40291 -7.40290685,19.32171 0,26.72461 L 14.3125,188.02734 c 7.402907,7.40291 19.321702,7.40291 26.724609,0 l 9.759766,-9.75976 A 94.488189,94.488189 0 0 1 10.708984,138.17969 Z"
       transform="scale(0.26458333)" />
    <path
       id="rect846"
       style="fill:url(#linearGradient956);fill-opacity:1;stroke:none;stroke-width:2.3;stroke-opacity:0.994039"
       d="m 85.039062,-28.345703 c -10.469291,0 -18.896484,8.427193 -18.896484,18.8964842 V 4.3515625 A 94.488189,94.488189 0 0 1 94.488281,0 94.488189,94.488189 0 0 1 122.83398,4.3535156 V -9.4492188 c 0,-10.4692912 -8.42719,-18.8964842 -18.89648,-18.8964842 z M 66.142578,184.62305 v 13.80273 c 0,10.46929 8.427193,18.89649 18.896484,18.89649 H 103.9375 c 10.46929,0 18.89648,-8.4272 18.89648,-18.89649 v -13.80273 a 94.488189,94.488189 0 0 1 -28.345699,4.35351 94.488189,94.488189 0 0 1 -28.345703,-4.35351 z"
       transform="scale(0.26458333)" />
    <path
       id="path14517"
       style="fill:#a9a7a7;fill-opacity:1;fill-rule:nonzero;stroke:none;stroke-width:0.496974;stroke-opacity:1"
       d="M 24.995929,0.4959287 A 24.499975,24.499976 0 0 0 0.4959287,24.995929 a 24.499975,24.499976 0 0 0 24.5000003,24.5 24.499975,24.499976 0 0 0 24.5,-24.5 24.499975,24.499976 0 0 0 -24.5,-24.5000003 z m 0,9.9477763 A 14.552389,14.55239 0 0 1 39.548154,24.995929 14.552389,14.55239 0 0 1 24.995929,39.548154 14.552389,14.55239 0 0 1 10.443705,24.995929 14.552389,14.55239 0 0 1 24.995929,10.443705 Z" />
    <circle
       style="fill:url(#linearGradient948);fill-opacity:1;stroke:none;stroke-width:0.429635;stroke-opacity:0.994039"
       id="path888"
       cx="25"
       cy="25"
       r="9.785182" />
  </g>
</svg>
