<?xml version="1.0" encoding="UTF-8" standalone="no"?>
<svg
   xmlns:dc="http://purl.org/dc/elements/1.1/"
   xmlns:cc="http://creativecommons.org/ns#"
   xmlns:rdf="http://www.w3.org/1999/02/22-rdf-syntax-ns#"
   xmlns:svg="http://www.w3.org/2000/svg"
   xmlns="http://www.w3.org/2000/svg"
   xmlns:xlink="http://www.w3.org/1999/xlink"
   xmlns:sodipodi="http://sodipodi.sourceforge.net/DTD/sodipodi-0.dtd"
   xmlns:inkscape="http://www.inkscape.org/namespaces/inkscape"
   sodipodi:docname="save_cog_2_icon.svg"
   inkscape:version="1.0.2 (e86c870879, 2021-01-15)"
   id="svg8"
   version="1.1"
   viewBox="0 0 65.608192 65.608192"
   height="65.608192mm"
   width="65.608192mm">
  <defs
     id="defs2">
    <linearGradient
       inkscape:collect="always"
       id="linearGradient947">
      <stop
         style="stop-color:#fffcfc;stop-opacity:1"
         offset="0"
         id="stop943" />
      <stop
         style="stop-color:#515151;stop-opacity:1"
         offset="1"
         id="stop945" />
    </linearGradient>
    <linearGradient
       inkscape:collect="always"
       id="linearGradient968">
      <stop
         style="stop-color:#fffcfc;stop-opacity:1"
         offset="0"
         id="stop964" />
      <stop
         style="stop-color:#515151;stop-opacity:1"
         offset="1"
         id="stop966" />
    </linearGradient>
    <linearGradient
       inkscape:collect="always"
       id="linearGradient946">
      <stop
         style="stop-color:#a9a7a7;stop-opacity:1;"
         offset="0"
         id="stop942" />
      <stop
         style="stop-color:#dedede;stop-opacity:1"
         offset="1"
         id="stop944" />
    </linearGradient>
    <linearGradient
       inkscape:collect="always"
       xlink:href="#linearGradient946"
       id="linearGradient948"
       x1="15.000001"
       y1="15.000001"
       x2="35"
       y2="35"
       gradientUnits="userSpaceOnUse" />
    <linearGradient
       inkscape:collect="always"
       xlink:href="#linearGradient968"
       id="linearGradient956"
       x1="-29.495703"
       y1="94.488281"
       x2="218.47227"
       y2="94.488281"
       gradientUnits="userSpaceOnUse" />
    <linearGradient
       inkscape:collect="always"
       xlink:href="#linearGradient968"
       id="linearGradient970"
       x1="-5.7434335"
       y1="-5.7515626"
       x2="194.72"
       y2="194.72"
       gradientUnits="userSpaceOnUse" />
    <linearGradient
       inkscape:collect="always"
       xlink:href="#linearGradient968"
       id="linearGradient917"
       x1="1.1503906"
       y1="123.98438"
       x2="246.81836"
       y2="123.98438"
       gradientUnits="userSpaceOnUse" />
    <linearGradient
       inkscape:collect="always"
       xlink:href="#linearGradient968"
       id="linearGradient925"
       x1="19.426144"
       y1="19.427734"
       x2="228.54065"
       y2="228.54065"
       gradientUnits="userSpaceOnUse" />
    <linearGradient
       inkscape:collect="always"
       xlink:href="#linearGradient947"
       id="linearGradient933"
       x1="123.98438"
       y1="1.1503906"
       x2="123.98438"
       y2="246.81836"
       gradientUnits="userSpaceOnUse" />
    <linearGradient
       inkscape:collect="always"
       xlink:href="#linearGradient968"
       id="linearGradient941"
       x1="228.54065"
       y1="19.427734"
       x2="19.426144"
       y2="228.54065"
       gradientUnits="userSpaceOnUse" />
  </defs>
  <sodipodi:namedview
     id="base"
     pagecolor="#ffffff"
     bordercolor="#666666"
     borderopacity="1.0"
     inkscape:pageopacity="0.0"
     inkscape:pageshadow="2"
     inkscape:zoom="3.219793"
     inkscape:cx="123.98437"
     inkscape:cy="111.56121"
     inkscape:document-units="mm"
     inkscape:current-layer="layer1"
     inkscape:document-rotation="0"
     showgrid="false"
     inkscape:snap-bbox="true"
     inkscape:bbox-paths="true"
     inkscape:bbox-nodes="true"
     inkscape:snap-bbox-edge-midpoints="true"
     inkscape:snap-bbox-midpoints="true"
     showguides="true"
     inkscape:guide-bbox="true"
     inkscape:window-width="1920"
     inkscape:window-height="1023"
     inkscape:window-x="0"
     inkscape:window-y="32"
     inkscape:window-maximized="1"
     fit-margin-top="0"
     fit-margin-left="0"
     fit-margin-right="0"
     fit-margin-bottom="0">
    <sodipodi:guide
       position="89.483108,-12.472309"
       orientation="0,-1"
       id="guide856" />
  </sodipodi:namedview>
  <metadata
     id="metadata5">
    <rdf:RDF>
      <cc:Work
         rdf:about="">
        <dc:format>image/svg+xml</dc:format>
        <dc:type
           rdf:resource="http://purl.org/dc/dcmitype/StillImage" />
        <dc:title />
      </cc:Work>
    </rdf:RDF>
  </metadata>
  <g
     inkscape:label="Layer 1"
     inkscape:groupmode="layer"
     id="layer1"
     transform="translate(7.8040713,7.8040713)">
    <path
       id="rect1207"
       style="opacity:1;fill:url(#linearGradient941);fill-opacity:1;stroke-width:5.13453"
       d="M 57.169922 19.427734 C 55.720743 19.427734 54.272545 19.981361 53.162109 21.091797 L 21.091797 53.162109 C 18.870925 55.382981 18.870925 58.958815 21.091797 61.179688 L 40.205078 80.292969 A 94.488196 94.488189 0 0 1 80.292969 40.205078 L 61.179688 21.091797 C 60.069251 19.981361 58.619101 19.427734 57.169922 19.427734 z M 207.76172 167.67578 A 94.488196 94.488189 0 0 1 167.67773 207.76367 L 186.78906 226.875 C 189.00993 229.09587 192.58577 229.09587 194.80664 226.875 L 226.875 194.80664 C 229.09587 192.58577 229.09587 189.00993 226.875 186.78906 L 207.76172 167.67578 z "
       transform="matrix(0.26458333,0,0,0.26458333,-7.8040713,-7.8040713)" />
    <path
       id="rect1203"
       style="opacity:1;fill:url(#linearGradient925);fill-opacity:1;stroke-width:5.13453"
       d="M 190.79688 19.427734 C 189.3477 19.427734 187.8995 19.981361 186.78906 21.091797 L 167.67578 40.205078 A 94.488196 94.488189 0 0 1 207.76367 80.291016 L 226.875 61.179688 C 229.09587 58.958815 229.09587 55.382981 226.875 53.162109 L 194.80664 21.091797 C 193.6962 19.981361 192.24605 19.427734 190.79688 19.427734 z M 40.205078 167.67578 L 21.091797 186.78906 C 18.870925 189.00993 18.870925 192.58577 21.091797 194.80664 L 53.162109 226.875 C 55.382981 229.09587 58.958815 229.09587 61.179688 226.875 L 80.292969 207.76172 A 94.488196 94.488189 0 0 1 40.205078 167.67578 z "
       transform="matrix(0.26458333,0,0,0.26458333,-7.8040713,-7.8040713)" />
    <path
       id="rect1205"
       style="opacity:1;fill:url(#linearGradient933);fill-opacity:1;stroke-width:5.13637801;stroke-miterlimit:4;stroke-dasharray:none"
       d="M 6.8183594 95.638672 C 3.677572 95.638672 1.1503906 98.165853 1.1503906 101.30664 L 1.1503906 146.66016 C 1.1503906 149.80094 3.677572 152.33008 6.8183594 152.33008 L 33.847656 152.33008 A 94.488196 94.488189 0 0 1 29.496094 123.98438 A 94.488196 94.488189 0 0 1 33.847656 95.638672 L 6.8183594 95.638672 z M 214.11914 95.638672 A 94.488196 94.488189 0 0 1 218.47266 123.98438 A 94.488196 94.488189 0 0 1 214.11914 152.33008 L 241.14844 152.33008 C 244.28922 152.33008 246.81836 149.80094 246.81836 146.66016 L 246.81836 101.30664 C 246.81836 98.165853 244.28922 95.638672 241.14844 95.638672 L 214.11914 95.638672 z "
       transform="matrix(0.26458333,0,0,0.26458333,-7.8040713,-7.8040713)" />
    <path
       id="rect1198"
       style="opacity:1;fill:url(#linearGradient917);fill-opacity:1;stroke-width:5.13453"
       d="M 101.30664 1.1503906 C 98.165853 1.1503906 95.638672 3.677572 95.638672 6.8183594 L 95.638672 33.847656 A 94.488196 94.488189 0 0 1 123.98438 29.496094 A 94.488196 94.488189 0 0 1 152.33008 33.847656 L 152.33008 6.8183594 C 152.33008 3.677572 149.80094 1.1503906 146.66016 1.1503906 L 101.30664 1.1503906 z M 95.638672 214.11914 L 95.638672 241.14844 C 95.638672 244.28922 98.165853 246.81836 101.30664 246.81836 L 146.66016 246.81836 C 149.80094 246.81836 152.33008 244.28922 152.33008 241.14844 L 152.33008 214.11914 A 94.488196 94.488189 0 0 1 123.98438 218.47266 A 94.488196 94.488189 0 0 1 95.638672 214.11914 z "
       transform="matrix(0.26458333,0,0,0.26458333,-7.8040713,-7.8040713)" />
    <path
       id="path14517"
       style="fill:#a9a7a7;fill-opacity:1;fill-rule:nonzero;stroke:none;stroke-width:0.496974;stroke-opacity:1"
       d="M 24.995929,0.4959287 A 24.499974,24.499975 0 0 0 0.4959287,24.995929 a 24.499974,24.499975 0 0 0 24.5000003,24.5 24.499974,24.499975 0 0 0 24.5,-24.5 24.499974,24.499975 0 0 0 -24.5,-24.5000003 z m 0,9.9477763 A 14.552388,14.552389 0 0 1 39.548154,24.995929 14.552388,14.552389 0 0 1 24.995929,39.548154 14.552388,14.552389 0 0 1 10.443705,24.995929 14.552388,14.552389 0 0 1 24.995929,10.443705 Z" />
    <circle
       style="fill:url(#linearGradient948);fill-opacity:1;stroke:none;stroke-width:0.429635;stroke-opacity:0.994039"
       id="path888"
       cx="25"
       cy="25"
       r="9.785182" />
  </g>
</svg>
